<svg id="Capa_1" enable-background="new 0 0 512 512" height="512" viewBox="0 0 512 512" width="512" xmlns="http://www.w3.org/2000/svg"><g><path d="m256 386.677h43.707v111.289c0 7.91-8.545 12.869-15.413 8.944l-23.183-13.248c-3.167-1.81-7.055-1.81-10.222 0l-23.183 13.248c-6.868 3.924-15.413-1.035-15.413-8.944v-111.289z" fill="#fb636f"/><path d="m501.698 365.864h-491.396c-5.69 0-10.302-4.613-10.302-10.302v-341.543c0-5.689 4.612-10.302 10.302-10.302h491.396c5.69 0 10.302 4.612 10.302 10.302v341.543c0 5.689-4.612 10.302-10.302 10.302z" fill="#93d87b"/><path d="m491.187 3.717v362.146h10.511c5.69 0 10.302-4.612 10.302-10.302v-341.542c0-5.69-4.612-10.302-10.302-10.302z" fill="#67c846"/><path d="m256 272.205c-51.643 0-93.659 42.015-93.659 93.659h187.317c.001-51.644-42.015-93.659-93.658-93.659z" fill="#67c846"/><path d="m41.626 313.936v-258.291c0-5.69 4.612-10.302 10.302-10.302h408.144c5.69 0 10.302 4.612 10.302 10.302v258.291c0 5.69-4.612 10.302-10.302 10.302h-408.144c-5.69 0-10.302-4.613-10.302-10.302z" fill="#eff3f5"/><path d="m172.118 324.238h167.765c-15.353-30.812-47.184-52.033-83.883-52.033s-68.53 21.221-83.882 52.033z" fill="#c9e2e7"/><g><path d="m313.236 104.661v35.382c0 14.943-25.625 27.057-57.236 27.057s-57.236-12.114-57.236-27.057v-35.382z" fill="#695e66"/><path d="m253.252 129.705-70.348-24.882c-3.691-1.305-3.652-6.538.057-7.79l70.406-23.744c1.709-.576 3.559-.576 5.267 0l70.406 23.744c3.71 1.251 3.748 6.484.057 7.79l-70.348 24.882c-1.779.629-3.719.629-5.497 0z" fill="#786e79"/></g><path d="m212.293 386.677v62c13.056 6.919 27.931 10.846 43.707 10.846s30.651-3.927 43.707-10.846v-62h-43.707z" fill="#fa4954"/><circle cx="256" cy="365.864" fill="#fce25c" r="72.846"/><path d="m299.999 307.816c9.281 12.226 14.798 27.466 14.798 43.999 0 40.231-32.614 72.846-72.846 72.846-16.533 0-31.773-5.516-43.999-14.798 13.303 17.523 34.35 28.846 58.048 28.846 40.231 0 72.846-32.614 72.846-72.846 0-23.697-11.323-44.744-28.847-58.047z" fill="#fbd307"/><circle cx="427.187" cy="88.53" fill="#fce25c" r="15.61"/><circle cx="84.813" cy="88.53" fill="#fce25c" r="15.61"/><g><path d="m328.845 201.883h-145.69c-4.268 0-7.726-3.459-7.726-7.726s3.459-7.726 7.726-7.726h145.69c4.268 0 7.726 3.459 7.726 7.726s-3.458 7.726-7.726 7.726z" fill="#786e79"/></g><g><path d="m380.878 233.102h-249.756c-4.268 0-7.726-3.459-7.726-7.726s3.459-7.726 7.726-7.726h249.757c4.268 0 7.726 3.459 7.726 7.726s-3.459 7.726-7.727 7.726z" fill="#786e79"/></g><g><path d="m380.878 260.159h-249.756c-4.268 0-7.726-3.459-7.726-7.726s3.459-7.726 7.726-7.726h249.757c4.268 0 7.726 3.459 7.726 7.726s-3.459 7.726-7.727 7.726z" fill="#786e79"/></g><g><path d="m439.155 301.785h-72.846c-4.268 0-7.726-3.459-7.726-7.726s3.459-7.726 7.726-7.726h72.846c4.268 0 7.726 3.459 7.726 7.726s-3.458 7.726-7.726 7.726z" fill="#786e79"/></g><g><path d="m145.691 301.785h-72.846c-4.268 0-7.726-3.459-7.726-7.726s3.459-7.726 7.726-7.726h72.846c4.268 0 7.726 3.459 7.726 7.726.001 4.267-3.458 7.726-7.726 7.726z" fill="#786e79"/></g><path d="m266.406 358.137h-20.813c-1.478 0-2.68-1.202-2.68-2.68v-10.406c0-1.478 1.202-2.68 2.68-2.68h31.219c4.268 0 7.726-3.459 7.726-7.726s-3.459-7.726-7.726-7.726h-13.087v-3.721c0-4.267-3.459-7.726-7.726-7.726s-7.726 3.459-7.726 7.726v3.721h-2.68c-9.998 0-18.133 8.134-18.133 18.133v10.406c0 9.998 8.135 18.133 18.133 18.133h20.813c1.478 0 2.68 1.202 2.68 2.68v10.406c0 1.478-1.202 2.68-2.68 2.68h-31.219c-4.268 0-7.726 3.459-7.726 7.726s3.459 7.726 7.726 7.726h13.087v2.68c0 4.267 3.459 7.726 7.726 7.726s7.726-3.459 7.726-7.726v-2.68h2.68c9.998 0 18.133-8.134 18.133-18.133v-10.406c0-9.998-8.135-18.133-18.133-18.133z" fill="#f9c301"/></g></svg>